<?xml version="1.0" standalone="no"?>
<!DOCTYPE svg PUBLIC "-//W3C//DTD SVG 20010904//EN"
 "http://www.w3.org/TR/2001/REC-SVG-20010904/DTD/svg10.dtd">
<svg version="1.0" xmlns="http://www.w3.org/2000/svg"
 width="179.000000pt" height="179.000000pt" viewBox="0 0 179.000000 179.000000"
 preserveAspectRatio="xMidYMid meet">
<metadata>
Created by potrace 1.14, written by Peter Selinger 2001-2017
</metadata>
<g transform="translate(0.000000,179.000000) scale(0.100000,-0.100000)"
fill="#000000" stroke="none">
<path d="M766 1328 c-21 -12 -21 -44 0 -52 9 -3 74 -6 145 -6 72 0 139 -4 149
-10 23 -13 42 -67 31 -89 -27 -49 -90 -72 -120 -43 -53 52 -56 53 -79 36 -28
-19 -19 -38 47 -102 25 -25 45 -49 44 -54 -2 -4 1 -7 6 -5 5 1 24 -14 43 -33
19 -19 56 -55 82 -78 45 -42 48 -43 66 -27 24 22 21 28 -63 114 -37 38 -67 72
-67 74 0 3 14 10 31 17 43 18 79 75 79 125 0 47 -34 101 -78 124 -31 17 -289
24 -316 9z"/>
<path d="M624 1265 c-9 -22 1 -41 30 -60 19 -13 29 -14 45 -5 28 14 26 26 -5
55 -30 28 -62 32 -70 10z"/>
<path d="M736 1173 c-14 -34 0 -54 118 -170 127 -126 156 -141 156 -86 0 19
-30 56 -121 146 -67 67 -128 122 -135 123 -7 1 -15 -5 -18 -13z"/>
<path d="M646 1104 c-19 -18 -15 -25 39 -79 53 -53 62 -58 84 -45 29 15 26 32
-9 63 -16 15 -30 31 -30 35 0 5 -12 15 -27 23 -16 7 -31 15 -34 17 -4 1 -14
-5 -23 -14z"/>
<path d="M631 962 c-8 -15 5 -34 82 -110 62 -63 98 -92 114 -92 47 0 27 41
-64 132 -89 89 -114 103 -132 70z"/>
<path d="M799 954 c-27 -32 45 -100 77 -73 21 17 17 33 -13 59 -34 30 -48 33
-64 14z"/>
<path d="M888 620 c-35 -5 -42 -25 -8 -25 11 0 15 -12 15 -44 0 -26 6 -46 13
-49 12 -4 14 0 16 58 1 27 5 35 19 34 22 -2 22 22 0 28 -10 2 -35 1 -55 -2z"/>
<path d="M1614 613 c-22 -23 -16 -44 16 -56 17 -6 30 -15 30 -20 0 -5 -13 -7
-30 -3 -30 6 -41 -6 -17 -21 33 -20 77 -5 77 28 0 14 -10 25 -30 32 -40 15
-38 30 3 22 31 -7 32 -7 14 12 -20 23 -43 25 -63 6z"/>
<path d="M159 608 c-3 -35 1 -101 6 -106 3 -3 8 4 12 16 7 28 29 28 43 2 6
-11 15 -18 21 -15 6 4 6 13 0 23 -5 10 -5 24 2 39 7 16 7 26 -3 38 -15 18 -80
20 -81 3z m58 -22 c9 -9 -18 -27 -29 -20 -4 3 -8 11 -8 19 0 14 24 15 37 1z"/>
<path d="M390 559 c0 -44 3 -60 12 -57 7 3 13 13 13 24 0 30 43 32 47 2 2 -13
9 -23 17 -23 13 0 17 38 12 103 -2 21 -31 13 -31 -8 0 -15 -7 -20 -26 -20 -21
0 -24 4 -19 20 5 14 2 20 -9 20 -13 0 -16 -12 -16 -61z"/>
<path d="M626 608 c4 -7 13 -20 20 -28 7 -8 17 -31 22 -50 8 -30 10 -32 16
-15 6 17 20 47 44 98 8 17 -21 5 -38 -15 l-17 -22 -7 22 c-4 13 -16 22 -27 22
-13 0 -18 -4 -13 -12z"/>
<path d="M1098 613 c-2 -5 -3 -28 -3 -53 1 -46 17 -68 23 -30 5 28 49 28 54 0
7 -44 23 -22 25 33 2 45 -1 57 -12 57 -8 0 -15 -9 -15 -20 0 -15 -7 -20 -25
-20 -18 0 -25 5 -25 20 0 19 -15 28 -22 13z"/>
<path d="M1340 566 c0 -30 4 -57 9 -60 12 -8 20 16 16 50 -2 26 -2 27 11 10 7
-11 15 -24 17 -30 2 -6 14 0 25 14 l21 25 -1 -25 c-1 -41 1 -52 12 -45 6 3 10
31 10 61 0 59 -18 73 -42 34 -7 -11 -16 -20 -20 -20 -4 0 -10 9 -13 20 -3 11
-15 20 -26 20 -16 0 -19 -7 -19 -54z"/>
</g>
</svg>
